<svg viewBox="0 0 412.58 104.2" xmlns="http://www.w3.org/2000/svg" xmlns:xlink="http://www.w3.org/1999/xlink"><linearGradient id="a" gradientUnits="userSpaceOnUse" x1="0" x2="412.58" y1="52.1" y2="52.1"><stop offset="0" stop-color="#03ffb9"/><stop offset="1" stop-color="#01e6dc"/></linearGradient><g fill="url(#a)"><path d="m46.56 94.52c-7.15 7.15-13.04 9.68-22.86 9.68-14.87 0-23.7-8.27-23.7-22.16 0-8.7 3.93-15.99 10.66-19.91 4.77-2.66 11.64-3.93 22.16-3.93 3.93 0 7.57.14 12.76.56v-.84c0-8.83-5.89-14.02-15.71-14.02-6.17 0-11.92 1.68-20.06 5.75l-4.07-14.87c8.55-3.93 17.67-5.75 27.35-5.75 11.78 0 21.18 3.23 26.79 9.12 5.47 5.61 6.87 11.08 6.87 25.8v19.92c.28 10.24.56 16.55.84 18.65h-20.33l-.7-7.99zm-.98-23.98c-3.51-.28-4.91-.28-6.87-.28-11.36 0-16.83 3.65-16.83 11.22 0 5.75 3.79 9.54 9.4 9.54s9.96-2.95 14.3-9.26z"/><path d="m89.19 0h21.32v39.13c6.87-7.01 13.88-10.1 23.28-10.1s16.55 3.51 20.33 10.24c2.38 4.21 3.23 9.12 3.23 18.79v44.46h-21.18v-42.77c0-5.75-.28-7.57-1.26-9.96-1.54-3.23-4.63-5.05-8.56-5.05-5.61 0-10.94 3.79-15.85 11.22v46.56h-21.32v-102.52z"/><path d="m195.77 73.63c.84 10.24 7.29 15.43 18.79 15.43 7.57 0 15.15-2.38 22.86-7.01l7.15 15.01c-9.4 4.91-18.65 7.15-30.29 7.15-26.65 0-40.67-12.76-40.67-37.3 0-11.36 3.37-20.9 9.96-27.77 6.31-6.87 15.15-10.1 27.07-10.1 16.83 0 28.19 6.59 32.82 19.07 2.38 6.73 3.09 11.78 3.09 25.52h-50.77zm29.45-13.89c-.42-10.1-5.61-15.85-14.31-15.85s-14.58 6.03-15.15 15.85h29.45z"/><path d="m303.06 94.52c-7.15 7.15-13.04 9.68-22.86 9.68-14.87 0-23.7-8.27-23.7-22.16 0-8.7 3.93-15.99 10.66-19.91 4.77-2.66 11.64-3.93 22.16-3.93 3.93 0 7.57.14 12.76.56v-.84c0-8.83-5.89-14.02-15.71-14.02-6.17 0-11.92 1.68-20.05 5.75l-4.07-14.87c8.56-3.93 17.67-5.75 27.35-5.75 11.78 0 21.18 3.23 26.79 9.12 5.47 5.61 6.87 11.08 6.87 25.8v19.92c.28 10.24.56 16.55.84 18.65h-20.33l-.7-7.99zm-.98-23.98c-3.51-.28-4.91-.28-6.87-.28-11.36 0-16.83 3.65-16.83 11.22 0 5.75 3.79 9.54 9.4 9.54s9.96-2.95 14.31-9.26v-11.22z"/><path d="m411.88 0v77.84c0 14.3.14 18.09.7 24.68h-20.48l-.7-9.82c-5.33 7.99-12.2 11.5-22.02 11.5-18.09 0-29.03-14.02-29.03-37.16s11.22-38.01 29.45-38.01c8.55 0 15.15 3.09 20.9 10.1v-39.13zm-21.17 55.54c-4.77-7.43-9.4-10.8-14.59-10.8-8.41 0-13.88 8.27-13.88 21.46s5.33 22.3 13.04 22.3c5.75 0 11.22-4.07 15.43-11.5z"/></g></svg>